<svg xmlns="http://www.w3.org/2000/svg" width="640" height="520" viewBox="0 0 640 520" role="img" aria-labelledby="title description">
<title id="title">Better Auth Starter</title><desc id="description">OAuth, sessions, and two-factor authentication.</desc>
<defs>
 <linearGradient id="base" x2="1" y2="1"><stop stop-color="#151020"/><stop offset=".6" stop-color="#0d0c16"/><stop offset="1" stop-color="#1d102b"/></linearGradient>
 <linearGradient id="glass" x2=".7" y2="1"><stop stop-color="#291e3b" stop-opacity=".95"/><stop offset="1" stop-color="#100e1b" stop-opacity=".98"/></linearGradient>
 <radialGradient id="halo"><stop stop-color="#b66aff" stop-opacity=".18"/><stop offset="1" stop-color="#b66aff" stop-opacity="0"/></radialGradient>
 <pattern id="grid" width="32" height="32" patternUnits="userSpaceOnUse"><path d="M32 0H0V32" fill="none" stroke="#b66aff" stroke-opacity=".07"/></pattern>
 <filter id="glow" x="-100%" y="-100%" width="300%" height="300%"><feGaussianBlur stdDeviation="4"/></filter>
</defs>
<rect x="1" y="1" width="638" height="518" rx="18" fill="url(#base)" stroke="#4d3865" /><rect x="1" y="1" width="638" height="518" rx="18" fill="url(#grid)" stroke="none" /><text x="34" y="54" fill="#b66aff" font-size="14" font-family="DejaVu Sans Mono, monospace" font-weight="400" letter-spacing="2">05 / AUTHENTICATION</text><text x="34" y="117" fill="#f5f0e9" font-size="38" font-family="DejaVu Sans, Arial, sans-serif" font-weight="700" >Better Auth Starter</text><text x="35" y="159" fill="#b8afc9" font-size="17" font-family="DejaVu Sans, Arial, sans-serif" font-weight="400" >OAuth, sessions, and two-factor authentication.</text><g transform="translate(43,182)"><ellipse cx="270" cy="140" rx="295" ry="190" fill="url(#halo)"/><path d="M0 290 240 172 550 248M20 270 270 150 550 222M80 300 310 183 540 266" stroke="#483059" stroke-width="1" fill="none"/><g transform="rotate(-5 270 154)" opacity=".4"><rect x="46" y="23" width="454" height="252" rx="12" fill="url(#glass)" stroke="#b66aff" /></g><g transform="rotate(4 270 154)" opacity=".25"><rect x="74" y="33" width="430" height="245" rx="12" fill="url(#glass)" stroke="#54dcf1" /></g><rect x="60" y="38" width="430" height="240" rx="12" fill="url(#glass)" stroke="#b66aff" /><line x1="60" y1="66" x2="490" y2="66" stroke="#40314f" stroke-width="1" /><circle cx="74" cy="52" r="3" fill="#ffa15a" /><circle cx="87" cy="52" r="3" fill="#b66aff" /><circle cx="100" cy="52" r="3" fill="#54dcf1" /><text x="117" y="57" fill="#b8afc9" font-size="11" font-family="DejaVu Sans Mono, monospace" font-weight="400" >~/better-auth</text><path d="M277 92 339 115V166C339 205 309 230 277 246 245 230 215 205 215 166V115Z" fill="#2d1b44" stroke="#b66aff" stroke-width="2"/><rect x="252" y="160" width="50" height="40" rx="6" fill="#b66aff" stroke="none" /><path d="M260 161V144A17 17 0 0 1 294 144V161" fill="none" stroke="#f5f0e9" stroke-width="4"/><circle cx="277" cy="177" r="4" fill="#0d0b16" /><line x1="277" y1="179" x2="277" y2="188" stroke="#0d0b16" stroke-width="3" /><rect x="80" y="119" width="95" height="35" rx="8" fill="#171225" stroke="#54dcf1" /><text x="127.5" y="142" fill="#f5f0e9" font-size="12" font-family="DejaVu Sans Mono, monospace" font-weight="400" text-anchor="middle">OAuth</text><rect x="366" y="119" width="95" height="35" rx="8" fill="#171225" stroke="#ffa15a" /><text x="413.5" y="142" fill="#f5f0e9" font-size="12" font-family="DejaVu Sans Mono, monospace" font-weight="400" text-anchor="middle">TOTP</text><line x1="175" y1="137" x2="215" y2="137" stroke="#54dcf1" stroke-width="2" /><line x1="339" y1="137" x2="366" y2="137" stroke="#ffa15a" stroke-width="2" /><circle cx="86" cy="200" r="4" fill="#54dcf1" /><circle cx="102" cy="200" r="4" fill="#54dcf1" /><circle cx="118" cy="200" r="4" fill="#54dcf1" /><circle cx="134" cy="200" r="4" fill="#54dcf1" /><circle cx="150" cy="200" r="4" fill="#54dcf1" /><circle cx="166" cy="200" r="4" fill="#54dcf1" /><text x="359" y="209" fill="#b8afc9" font-size="12" font-family="DejaVu Sans Mono, monospace" font-weight="400" >sessions</text></g><circle cx="611" cy="29" r="4" fill="#b66aff" /><g transform="translate(43,182)"><circle r="3" fill="#b66aff"><animateMotion path="M176 137 H214 M340 137 H365" dur="6s" begin="-0s" repeatCount="indefinite"/></circle><circle r="3" fill="#b66aff"><animateMotion path="M176 137 H214 M340 137 H365" dur="6s" begin="-3s" repeatCount="indefinite"/></circle></g>
</svg>