<svg xmlns="http://www.w3.org/2000/svg" width="640" height="520" viewBox="0 0 640 520" role="img" aria-labelledby="title description">
<title id="title">DocsAI</title><desc id="description">Document answers you can trace.</desc>
<defs>
 <linearGradient id="base" x2="1" y2="1"><stop stop-color="#151020"/><stop offset=".6" stop-color="#0d0c16"/><stop offset="1" stop-color="#1d102b"/></linearGradient>
 <linearGradient id="glass" x2=".7" y2="1"><stop stop-color="#291e3b" stop-opacity=".95"/><stop offset="1" stop-color="#100e1b" stop-opacity=".98"/></linearGradient>
 <radialGradient id="halo"><stop stop-color="#b66aff" stop-opacity=".18"/><stop offset="1" stop-color="#b66aff" stop-opacity="0"/></radialGradient>
 <pattern id="grid" width="32" height="32" patternUnits="userSpaceOnUse"><path d="M32 0H0V32" fill="none" stroke="#b66aff" stroke-opacity=".07"/></pattern>
 <filter id="glow" x="-100%" y="-100%" width="300%" height="300%"><feGaussianBlur stdDeviation="4"/></filter>
</defs>
<rect x="1" y="1" width="638" height="518" rx="18" fill="url(#base)" stroke="#4d3865" /><rect x="1" y="1" width="638" height="518" rx="18" fill="url(#grid)" stroke="none" /><text x="34" y="54" fill="#b66aff" font-size="14" font-family="DejaVu Sans Mono, monospace" font-weight="400" letter-spacing="2">03 / RETRIEVAL</text><text x="34" y="117" fill="#f5f0e9" font-size="52" font-family="DejaVu Sans, Arial, sans-serif" font-weight="700" >DocsAI</text><text x="35" y="159" fill="#b8afc9" font-size="17" font-family="DejaVu Sans, Arial, sans-serif" font-weight="400" >Document answers you can trace.</text><g transform="translate(43,182)"><ellipse cx="270" cy="140" rx="295" ry="190" fill="url(#halo)"/><path d="M0 290 240 172 550 248M20 270 270 150 550 222M80 300 310 183 540 266" stroke="#483059" stroke-width="1" fill="none"/><g transform="rotate(-5 270 154)" opacity=".4"><rect x="46" y="23" width="454" height="252" rx="12" fill="url(#glass)" stroke="#b66aff" /></g><g transform="rotate(4 270 154)" opacity=".25"><rect x="74" y="33" width="430" height="245" rx="12" fill="url(#glass)" stroke="#54dcf1" /></g><rect x="60" y="38" width="430" height="240" rx="12" fill="url(#glass)" stroke="#b66aff" /><line x1="60" y1="66" x2="490" y2="66" stroke="#40314f" stroke-width="1" /><circle cx="74" cy="52" r="3" fill="#ffa15a" /><circle cx="87" cy="52" r="3" fill="#b66aff" /><circle cx="100" cy="52" r="3" fill="#54dcf1" /><text x="117" y="57" fill="#b8afc9" font-size="11" font-family="DejaVu Sans Mono, monospace" font-weight="400" >~/docsai</text><rect x="107" y="86" width="80" height="120" rx="6" fill="#21192f" stroke="#b66aff" /><rect x="99" y="94" width="80" height="120" rx="6" fill="#21192f" stroke="#b66aff" /><rect x="91" y="102" width="80" height="120" rx="6" fill="#21192f" stroke="#b66aff" /><line x1="104" y1="127" x2="157" y2="127" stroke="#9683b2" stroke-width="3" /><line x1="104" y1="143" x2="157" y2="143" stroke="#9683b2" stroke-width="3" /><line x1="104" y1="159" x2="157" y2="159" stroke="#9683b2" stroke-width="3" /><line x1="104" y1="175" x2="157" y2="175" stroke="#9683b2" stroke-width="3" /><line x1="104" y1="191" x2="157" y2="191" stroke="#9683b2" stroke-width="3" /><line x1="186" y1="158" x2="221" y2="158" stroke="#54dcf1" stroke-width="2" /><path d="M237 120V200C237 220 315 220 315 200V120" fill="#21192f" stroke="#54dcf1" stroke-width="2"/><ellipse cx="276" cy="120" rx="39" ry="13" fill="#24203b" stroke="#54dcf1" stroke-width="2"/><path d="M237 157C237 176 315 176 315 157M237 183C237 202 315 202 315 183" fill="none" stroke="#54dcf1"/><line x1="331" y1="158" x2="363" y2="158" stroke="#54dcf1" stroke-width="2" /><rect x="378" y="102" width="86" height="120" rx="6" fill="#21192f" stroke="#b66aff" /><rect x="391" y="125" width="58" height="7" rx="2" fill="#7e7290" stroke="none" /><rect x="391" y="146" width="39" height="7" rx="2" fill="#b66aff" stroke="none" /><rect x="391" y="167" width="58" height="7" rx="2" fill="#7e7290" stroke="none" /><rect x="391" y="188" width="48" height="7" rx="2" fill="#7e7290" stroke="none" /><text x="120" y="252" fill="#b8afc9" font-size="12" font-family="DejaVu Sans Mono, monospace" font-weight="400" >PDF → retrieve → rerank → cite</text></g><circle cx="611" cy="29" r="4" fill="#b66aff" /><g transform="translate(43,182)"><circle r="3" fill="#b66aff"><animateMotion path="M173 158 H235 M316 158 H376" dur="6s" begin="-0s" repeatCount="indefinite"/></circle><circle r="3" fill="#b66aff"><animateMotion path="M173 158 H235 M316 158 H376" dur="6s" begin="-3s" repeatCount="indefinite"/></circle></g>
</svg>