<svg xmlns="http://www.w3.org/2000/svg" width="480" height="474" viewBox="0 0 480 474" role="img" aria-labelledby="title desc">
<title id="title">Muhammad Yousaf — Linux Systems + Agentic AI</title>
<desc id="desc">Terminal illustration of Linux process control and agentic AI. Decorative animation; no live system data.</desc>
<style>
text { font-family: 'DejaVu Sans Mono', Consolas, monospace; }
.cursor { animation: blink 1.6s steps(1,end) infinite; }
.signal { animation: pulse 4s ease-in-out infinite; }
@keyframes blink { 0%,65% {opacity:1} 66%,100% {opacity:0} }
@keyframes pulse { 0%,100% {opacity:.35} 50% {opacity:1} }

@media (prefers-reduced-motion: reduce) { * {animation:none !important;} }
</style>
<rect x="1" y="1" width="478" height="472" rx="16" fill="#0B0E14" stroke="#263040"/>
<path d="M1 49H479" stroke="#263040"/><circle cx="28" cy="25" r="5" fill="#64D8E8"/><circle cx="48" cy="25" r="5" fill="#F5A623"/><circle cx="68" cy="25" r="5" fill="#7CFFB2"/><text x="102" y="30" font-size="13" fill="#9AA3B8" >yousaf@linux: ~ / profile</text><text x="28" y="87" font-size="16" fill="#7CFFB2" >$ ./myShell --interactive</text><text x="28" y="126" font-size="38" fill="#E6E6E6" font-weight="700">MUHAMMAD</text><text x="28" y="173" font-size="38" fill="#E6E6E6" font-weight="700">YOUSAF</text><text x="28" y="213" font-size="20" fill="#64D8E8" >Linux Systems + Agentic AI</text><path d="M28 238H452" stroke="#263040"/><text x="28" y="273" font-size="14" fill="#9AA3B8" >OS</text><text x="104" y="273" font-size="16" fill="#E6E6E6" >Linux / processes / terminals</text><text x="28" y="304" font-size="14" fill="#9AA3B8" >SHELL</text><text x="104" y="304" font-size="16" fill="#E6E6E6" >C++20 / POSIX / job control</text><text x="28" y="335" font-size="14" fill="#9AA3B8" >AGENTS</text><text x="104" y="335" font-size="16" fill="#E6E6E6" >LangGraph / RAG / tools</text><text x="28" y="366" font-size="14" fill="#9AA3B8" >WEB</text><text x="104" y="366" font-size="16" fill="#E6E6E6" >Next.js / FastAPI / TypeScript</text><text x="28" y="408" font-size="15" fill="#7CFFB2">PARSE -&gt; EXECUTE</text><text x="236" y="408" font-size="15" fill="#64D8E8">REASON -&gt; ACT</text><circle class="signal" cx="34" cy="445" r="4" fill="#7CFFB2"/><text x="47" y="450" font-size="12" fill="#9AA3B8" >ready for input</text><rect class="cursor" x="440" y="433" width="11" height="18" fill="#7CFFB2"/>
</svg>